<?xml version="1.0" standalone="no"?>
<svg xmlns:xlink="http://www.w3.org/1999/xlink" id="wave" style="transform:rotate(0deg); transition: 0.3s" viewBox="0 0 1440 210" version="1.1" xmlns="http://www.w3.org/2000/svg"><defs><linearGradient id="sw-gradient-0" x1="0" x2="0" y1="1" y2="0"><stop stop-color="rgba(70, 204, 211, 1)" offset="0%"/><stop stop-color="rgba(113, 229, 234, 1)" offset="100%"/></linearGradient></defs><path style="transform:translate(0, 0px); opacity:1" fill="url(#sw-gradient-0)" d="M0,42L60,66.5C120,91,240,140,360,157.5C480,175,600,161,720,136.5C840,112,960,77,1080,66.5C1200,56,1320,70,1440,84C1560,98,1680,112,1800,129.5C1920,147,2040,168,2160,164.5C2280,161,2400,133,2520,115.5C2640,98,2760,91,2880,84C3000,77,3120,70,3240,56C3360,42,3480,21,3600,38.5C3720,56,3840,112,3960,140C4080,168,4200,168,4320,161C4440,154,4560,140,4680,126C4800,112,4920,98,5040,94.5C5160,91,5280,98,5400,108.5C5520,119,5640,133,5760,129.5C5880,126,6000,105,6120,87.5C6240,70,6360,56,6480,42C6600,28,6720,14,6840,31.5C6960,49,7080,98,7200,126C7320,154,7440,161,7560,140C7680,119,7800,70,7920,52.5C8040,35,8160,49,8280,70C8400,91,8520,119,8580,133L8640,147L8640,210L8580,210C8520,210,8400,210,8280,210C8160,210,8040,210,7920,210C7800,210,7680,210,7560,210C7440,210,7320,210,7200,210C7080,210,6960,210,6840,210C6720,210,6600,210,6480,210C6360,210,6240,210,6120,210C6000,210,5880,210,5760,210C5640,210,5520,210,5400,210C5280,210,5160,210,5040,210C4920,210,4800,210,4680,210C4560,210,4440,210,4320,210C4200,210,4080,210,3960,210C3840,210,3720,210,3600,210C3480,210,3360,210,3240,210C3120,210,3000,210,2880,210C2760,210,2640,210,2520,210C2400,210,2280,210,2160,210C2040,210,1920,210,1800,210C1680,210,1560,210,1440,210C1320,210,1200,210,1080,210C960,210,840,210,720,210C600,210,480,210,360,210C240,210,120,210,60,210L0,210Z"/><defs><linearGradient id="sw-gradient-1" x1="0" x2="0" y1="1" y2="0"><stop stop-color="rgba(70, 204, 211, 1)" offset="0%"/><stop stop-color="rgba(70, 204, 211, 1)" offset="100%"/></linearGradient></defs><path style="transform:translate(0, 50px); opacity:0.9" fill="url(#sw-gradient-1)" d="M0,84L60,101.5C120,119,240,154,360,143.5C480,133,600,77,720,70C840,63,960,105,1080,108.5C1200,112,1320,77,1440,63C1560,49,1680,56,1800,59.5C1920,63,2040,63,2160,56C2280,49,2400,35,2520,52.5C2640,70,2760,119,2880,115.5C3000,112,3120,56,3240,31.5C3360,7,3480,14,3600,35C3720,56,3840,91,3960,108.5C4080,126,4200,126,4320,136.5C4440,147,4560,168,4680,161C4800,154,4920,119,5040,91C5160,63,5280,42,5400,52.5C5520,63,5640,105,5760,119C5880,133,6000,119,6120,122.5C6240,126,6360,147,6480,161C6600,175,6720,182,6840,154C6960,126,7080,63,7200,42C7320,21,7440,42,7560,56C7680,70,7800,77,7920,70C8040,63,8160,42,8280,31.5C8400,21,8520,21,8580,21L8640,21L8640,210L8580,210C8520,210,8400,210,8280,210C8160,210,8040,210,7920,210C7800,210,7680,210,7560,210C7440,210,7320,210,7200,210C7080,210,6960,210,6840,210C6720,210,6600,210,6480,210C6360,210,6240,210,6120,210C6000,210,5880,210,5760,210C5640,210,5520,210,5400,210C5280,210,5160,210,5040,210C4920,210,4800,210,4680,210C4560,210,4440,210,4320,210C4200,210,4080,210,3960,210C3840,210,3720,210,3600,210C3480,210,3360,210,3240,210C3120,210,3000,210,2880,210C2760,210,2640,210,2520,210C2400,210,2280,210,2160,210C2040,210,1920,210,1800,210C1680,210,1560,210,1440,210C1320,210,1200,210,1080,210C960,210,840,210,720,210C600,210,480,210,360,210C240,210,120,210,60,210L0,210Z"/></svg>